<?xml version="1.0" encoding="UTF-8" standalone="no"?>
<!-- Created with Inkscape (http://www.inkscape.org/) -->

<svg
   xmlns:dc="http://purl.org/dc/elements/1.1/"
   xmlns:cc="http://creativecommons.org/ns#"
   xmlns:rdf="http://www.w3.org/1999/02/22-rdf-syntax-ns#"
   xmlns:svg="http://www.w3.org/2000/svg"
   xmlns="http://www.w3.org/2000/svg"
   xmlns:sodipodi="http://sodipodi.sourceforge.net/DTD/sodipodi-0.dtd"
   xmlns:inkscape="http://www.inkscape.org/namespaces/inkscape"
   width="100mm"
   height="100mm"
   viewBox="0 0 354.33071 354.33071"
   id="svg2"
   version="1.1"
   inkscape:version="0.91 r13725"
   sodipodi:docname="logo.svg">
  <defs
     id="defs4">
    <inkscape:perspective
       sodipodi:type="inkscape:persp3d"
       inkscape:vp_x="0 : 177.16536 : 1"
       inkscape:vp_y="0 : 1000 : 0"
       inkscape:vp_z="354.33071 : 177.16536 : 1"
       inkscape:persp3d-origin="177.16536 : 118.11024 : 1"
       id="perspective8116" />
    <filter
       inkscape:collect="always"
       style="color-interpolation-filters:sRGB"
       id="filter11174"
       x="-0.031320272"
       width="1.0626405"
       y="-0.14429483"
       height="1.2885897">
      <feGaussianBlur
         inkscape:collect="always"
         stdDeviation="0.82641956"
         id="feGaussianBlur11176" />
    </filter>
    <filter
       inkscape:collect="always"
       style="color-interpolation-filters:sRGB"
       id="filter11178"
       x="-0.031320272"
       width="1.0626405"
       y="-0.14429483"
       height="1.2885897">
      <feGaussianBlur
         inkscape:collect="always"
         stdDeviation="0.82641956"
         id="feGaussianBlur11180" />
    </filter>
    <filter
       inkscape:collect="always"
       style="color-interpolation-filters:sRGB"
       id="filter11182"
       x="-0.031320272"
       width="1.0626405"
       y="-0.14429483"
       height="1.2885897">
      <feGaussianBlur
         inkscape:collect="always"
         stdDeviation="0.82641957"
         id="feGaussianBlur11184" />
    </filter>
    <filter
       inkscape:collect="always"
       style="color-interpolation-filters:sRGB"
       id="filter11186"
       x="-0.031320272"
       width="1.0626405"
       y="-0.14429483"
       height="1.2885897">
      <feGaussianBlur
         inkscape:collect="always"
         stdDeviation="0.82641957"
         id="feGaussianBlur11188" />
    </filter>
  </defs>
  <sodipodi:namedview
     id="base"
     pagecolor="#ffffff"
     bordercolor="#666666"
     borderopacity="1.0"
     inkscape:pageopacity="0.0"
     inkscape:pageshadow="2"
     inkscape:zoom="1.4"
     inkscape:cx="-148.25861"
     inkscape:cy="148.69111"
     inkscape:document-units="px"
     inkscape:current-layer="g4391"
     showgrid="false"
     inkscape:window-width="2560"
     inkscape:window-height="1377"
     inkscape:window-x="-8"
     inkscape:window-y="-8"
     inkscape:window-maximized="1"
     inkscape:snap-text-baseline="true"
     showguides="true"
     inkscape:guide-bbox="true">
    <sodipodi:guide
       position="-602.14285,170.71428"
       orientation="0,1"
       id="guide11190" />
    <sodipodi:guide
       position="180.71428,279.28571"
       orientation="1,0"
       id="guide11192" />
  </sodipodi:namedview>
  <metadata
     id="metadata7">
    <rdf:RDF>
      <cc:Work
         rdf:about="">
        <dc:format>image/svg+xml</dc:format>
        <dc:type
           rdf:resource="http://purl.org/dc/dcmitype/StillImage" />
        <dc:title />
      </cc:Work>
    </rdf:RDF>
  </metadata>
  <g
     inkscape:label="Calque 1"
     inkscape:groupmode="layer"
     id="layer1"
     transform="translate(0,-698.0315)">
    <g
       style="font-style:normal;font-variant:normal;font-weight:normal;font-stretch:normal;font-size:80px;line-height:125%;font-family:'OCR A Extended';-inkscape-font-specification:'OCR A Extended, Normal';text-align:start;letter-spacing:0px;word-spacing:0px;writing-mode:lr-tb;text-anchor:start;fill:#000000;fill-opacity:1;stroke:none;stroke-width:1px;stroke-linecap:butt;stroke-linejoin:miter;stroke-opacity:1"
       id="text4136">
      <g
         id="g4391"
         transform="matrix(3.2678924,0,0,3.1081781,-805.60543,50.726503)"
         style="image-rendering:optimizeSpeed">
        <text
           xml:space="preserve"
           style="font-style:normal;font-variant:normal;font-weight:normal;font-stretch:normal;font-size:25.10170174px;line-height:125%;font-family:'OCR A Extended';-inkscape-font-specification:'OCR A Extended, Normal';text-align:start;letter-spacing:0px;word-spacing:0px;writing-mode:lr-tb;text-anchor:start;fill:#000000;fill-opacity:1;stroke:none;stroke-width:1px;stroke-linecap:butt;stroke-linejoin:miter;stroke-opacity:1"
           x="166.48874"
           y="236.96231"
           id="text8084"
           sodipodi:linespacing="125%"
           transform="scale(0.97525699,1.0253708)"><tspan
             sodipodi:role="line"
             id="tspan8086"
             x="166.48874"
             y="236.96231" /></text>
        <text
           xml:space="preserve"
           style="font-style:normal;font-variant:normal;font-weight:normal;font-stretch:normal;font-size:25.10170174px;line-height:125%;font-family:'Bauhaus 93';-inkscape-font-specification:'Bauhaus 93, ';text-align:start;letter-spacing:0px;word-spacing:0px;writing-mode:lr-tb;text-anchor:start;fill:#000000;fill-opacity:1;stroke:none;stroke-width:1px;stroke-linecap:butt;stroke-linejoin:miter;stroke-opacity:1;"
           x="79.081039"
           y="183.17294"
           id="text8088"
           sodipodi:linespacing="125%"
           transform="scale(0.97525699,1.0253708)"><tspan
             sodipodi:role="line"
             id="tspan8090"
             x="79.081039"
             y="183.17294" /></text>
        <flowRoot
           xml:space="preserve"
           id="flowRoot8092"
           style="fill:black;stroke:none;stroke-opacity:1;stroke-width:1px;stroke-linejoin:miter;stroke-linecap:butt;fill-opacity:1;font-family:'Bauhaus 93';font-style:normal;font-weight:normal;font-size:80px;line-height:125%;letter-spacing:0px;word-spacing:0px;-inkscape-font-specification:'Bauhaus 93, ';font-stretch:normal;font-variant:normal;text-anchor:start;text-align:start;writing-mode:lr;"><flowRegion
             id="flowRegion8094"><rect
               id="rect8096"
               width="217.85715"
               height="107.85715"
               x="-516.42859"
               y="-127.81216"
               style="-inkscape-font-specification:'Bauhaus 93, ';font-family:'Bauhaus 93';font-weight:normal;font-style:normal;font-stretch:normal;font-variant:normal;" /></flowRegion><flowPara
             id="flowPara8098" /></flowRoot>        <flowRoot
           xml:space="preserve"
           id="flowRoot8100"
           style="font-style:normal;font-variant:normal;font-weight:normal;font-stretch:normal;font-size:80px;line-height:125%;font-family:'OCR A Extended';-inkscape-font-specification:'OCR A Extended, Normal';text-align:start;letter-spacing:0px;word-spacing:0px;writing-mode:lr-tb;text-anchor:start;fill:#000000;fill-opacity:1;stroke:none;stroke-width:1px;stroke-linecap:butt;stroke-linejoin:miter;stroke-opacity:1"
           transform="matrix(0.30600763,0,0,0.32173189,246.52141,208.25866)"><flowRegion
             id="flowRegion8102"><rect
               id="rect8104"
               width="167.14285"
               height="120"
               x="-593.57141"
               y="-113.52644" /></flowRegion><flowPara
             id="flowPara8106">sdasda</flowPara></flowRoot>        <g
           id="g11194"
           transform="matrix(1.2356164,0,0,1.5476157,-68.518103,-145.72941)">
          <g
             transform="scale(0.80721443,1.2388282)"
             style="font-style:normal;font-variant:normal;font-weight:normal;font-stretch:normal;font-size:39.24818802px;line-height:125%;font-family:'Bauhaus 93';-inkscape-font-specification:'Bauhaus 93, ';text-align:start;letter-spacing:0px;word-spacing:0px;writing-mode:lr-tb;text-anchor:start;fill:#4d0056;fill-opacity:1;stroke:none;stroke-width:1px;stroke-linecap:butt;stroke-linejoin:miter;stroke-opacity:1"
             id="text8108">
            <path
               d="m 333.16054,205.14111 0,7.55068 q -1.51396,0 -2.08889,0.57492 -0.55576,0.55577 -0.70907,2.22305 -0.49827,5.53844 -4.29277,7.81897 -2.01224,1.18818 -5.71092,1.18818 l -0.99654,0 0,-7.58901 0.32579,0 q 1.72478,0 2.45302,-0.70907 0.7474,-0.72824 0.86238,-2.52967 0.15332,-2.93211 0.5366,-4.12029 0.40245,-1.18818 1.60979,-2.35719 2.10805,-2.05057 5.84506,-2.05057 l 2.16555,0 z"
               style=""
               id="path8108" />
            <path
               d="m 354.29861,215.58558 -10.86608,0 q -0.24913,-0.82406 -0.24913,-1.51397 0,-0.95821 0.34495,-1.87809 l 3.64119,0 q -0.38328,-2.12722 -2.39552,-2.12722 -1.34149,0 -2.18471,1.14985 -0.84322,1.13069 -0.84322,2.91295 0,1.85892 0.80489,3.00877 0.82406,1.14985 2.14639,1.14985 1.07319,0 2.06972,-1.07319 l 4.08197,4.90602 q -2.85546,2.24221 -6.34334,2.24221 -4.25444,0 -7.14823,-2.85546 -2.89378,-2.85546 -2.89378,-7.07157 0,-4.19695 2.91295,-7.09074 2.93211,-2.89379 7.18656,-2.89379 4.15862,0 6.97575,2.8363 2.83629,2.81713 2.83629,6.95659 0,0.42161 -0.0767,1.34149 z"
               style=""
               id="path8110" />
            <path
               d="m 374.32515,223.97948 -7.1674,0 0,-10.78942 q 0,-1.64812 -1.36065,-1.64812 -1.34149,0 -1.34149,1.64812 l 0,10.78942 -7.1674,0 0,-10.65527 q 0,-3.73701 2.47218,-6.28585 2.47218,-2.56799 6.05587,-2.56799 4.10113,0 6.57331,2.97044 1.93558,2.31886 1.93558,6.45832 l 0,10.08035 z"
               style=""
               id="path8112" />
            <path
               d="m 390.49969,205.14111 0,7.55068 q -1.51396,0 -2.08889,0.57492 -0.55576,0.55577 -0.70907,2.22305 -0.49827,5.53844 -4.29277,7.81897 -2.01224,1.18818 -5.71092,1.18818 l -0.99654,0 0,-7.58901 0.32579,0 q 1.72478,0 2.45302,-0.70907 0.7474,-0.72824 0.86238,-2.52967 0.15332,-2.93211 0.5366,-4.12029 0.40245,-1.18818 1.60979,-2.35719 2.10805,-2.05057 5.84506,-2.05057 l 2.16555,0 z"
               style=""
               id="path8114" />
            <path
               d="m 411.63775,215.58558 -10.86607,0 q -0.24914,-0.82406 -0.24914,-1.51397 0,-0.95821 0.34496,-1.87809 l 3.64119,0 q -0.38328,-2.12722 -2.39552,-2.12722 -1.34149,0 -2.18471,1.14985 -0.84323,1.13069 -0.84323,2.91295 0,1.85892 0.8049,3.00877 0.82406,1.14985 2.14638,1.14985 1.0732,0 2.06973,-1.07319 l 4.08197,4.90602 q -2.85546,2.24221 -6.34334,2.24221 -4.25444,0 -7.14823,-2.85546 -2.89379,-2.85546 -2.89379,-7.07157 0,-4.19695 2.91296,-7.09074 2.93211,-2.89379 7.18655,-2.89379 4.15863,0 6.97576,2.8363 2.83629,2.81713 2.83629,6.95659 0,0.42161 -0.0767,1.34149 z"
               style=""
               id="path8116" />
          </g>
          <g
             transform="scale(0.80721443,1.2388282)"
             style="font-style:normal;font-variant:normal;font-weight:normal;font-stretch:normal;font-size:39.24818802px;line-height:125%;font-family:'Bauhaus 93';-inkscape-font-specification:'Bauhaus 93, ';text-align:start;letter-spacing:0px;word-spacing:0px;writing-mode:lr-tb;text-anchor:start;fill:#c362cc;fill-opacity:0.72965118;stroke:none;stroke-width:1px;stroke-linecap:butt;stroke-linejoin:miter;stroke-opacity:1"
             id="text8112">
            <path
               d="m 338.41704,205.14111 0,7.55068 q -1.51396,0 -2.08889,0.57492 -0.55576,0.55577 -0.70907,2.22305 -0.49827,5.53844 -4.29277,7.81897 -2.01224,1.18818 -5.71092,1.18818 l -0.99654,0 0,-7.58901 0.32579,0 q 1.72478,0 2.45302,-0.70907 0.7474,-0.72824 0.86238,-2.52967 0.15332,-2.93211 0.5366,-4.12029 0.40245,-1.18818 1.60979,-2.35719 2.10806,-2.05057 5.84507,-2.05057 l 2.16554,0 z"
               style=""
               id="path8119" />
            <path
               d="m 359.55511,215.58558 -10.86608,0 q -0.24913,-0.82406 -0.24913,-1.51397 0,-0.95821 0.34495,-1.87809 l 3.64119,0 q -0.38328,-2.12722 -2.39552,-2.12722 -1.34149,0 -2.18471,1.14985 -0.84322,1.13069 -0.84322,2.91295 0,1.85892 0.80489,3.00877 0.82406,1.14985 2.14639,1.14985 1.07319,0 2.06972,-1.07319 l 4.08197,4.90602 q -2.85546,2.24221 -6.34334,2.24221 -4.25444,0 -7.14823,-2.85546 -2.89378,-2.85546 -2.89378,-7.07157 0,-4.19695 2.91295,-7.09074 2.93211,-2.89379 7.18656,-2.89379 4.15862,0 6.97575,2.8363 2.83629,2.81713 2.83629,6.95659 0,0.42161 -0.0766,1.34149 z"
               style=""
               id="path8121" />
            <path
               d="m 379.58165,223.97948 -7.1674,0 0,-10.78942 q 0,-1.64812 -1.36065,-1.64812 -1.34149,0 -1.34149,1.64812 l 0,10.78942 -7.1674,0 0,-10.65527 q 0,-3.73701 2.47218,-6.28585 2.47218,-2.56799 6.05587,-2.56799 4.10113,0 6.57331,2.97044 1.93558,2.31886 1.93558,6.45832 l 0,10.08035 z"
               style=""
               id="path8123" />
            <path
               d="m 395.75619,205.14111 0,7.55068 q -1.51396,0 -2.08889,0.57492 -0.55576,0.55577 -0.70907,2.22305 -0.49827,5.53844 -4.29277,7.81897 -2.01224,1.18818 -5.71092,1.18818 l -0.99654,0 0,-7.58901 0.32579,0 q 1.72478,0 2.45302,-0.70907 0.7474,-0.72824 0.86238,-2.52967 0.15332,-2.93211 0.5366,-4.12029 0.40245,-1.18818 1.60979,-2.35719 2.10805,-2.05057 5.84506,-2.05057 l 2.16555,0 z"
               style=""
               id="path8125" />
            <path
               d="m 416.89425,215.58558 -10.86607,0 q -0.24914,-0.82406 -0.24914,-1.51397 0,-0.95821 0.34496,-1.87809 l 3.64119,0 q -0.38328,-2.12722 -2.39552,-2.12722 -1.34149,0 -2.18471,1.14985 -0.84323,1.13069 -0.84323,2.91295 0,1.85892 0.8049,3.00877 0.82406,1.14985 2.14638,1.14985 1.0732,0 2.06973,-1.07319 l 4.08197,4.90602 q -2.85546,2.24221 -6.34334,2.24221 -4.25444,0 -7.14823,-2.85546 -2.89379,-2.85546 -2.89379,-7.07157 0,-4.19695 2.91296,-7.09074 2.93211,-2.89379 7.18655,-2.89379 4.15863,0 6.97576,2.8363 2.83629,2.81713 2.83629,6.95659 0,0.42161 -0.0767,1.34149 z"
               style=""
               id="path8127" />
          </g>
          <g
             transform="scale(0.80721443,1.2388282)"
             style="font-style:normal;font-variant:normal;font-weight:normal;font-stretch:normal;font-size:39.24818802px;line-height:125%;font-family:'Bauhaus 93';-inkscape-font-specification:'Bauhaus 93, ';text-align:start;letter-spacing:0px;word-spacing:0px;writing-mode:lr-tb;text-anchor:start;opacity:0.66000001;fill:#785db1;fill-opacity:1;stroke:none;stroke-width:1px;stroke-linecap:butt;stroke-linejoin:miter;stroke-opacity:1"
             id="text8136">
            <path
               d="m 345.57998,205.14111 0,7.55068 q -1.51397,0 -2.08889,0.57492 -0.55577,0.55577 -0.70908,2.22305 -0.49827,5.53844 -4.29277,7.81897 -2.01224,1.18818 -5.71092,1.18818 l -0.99653,0 0,-7.58901 0.32579,0 q 1.72477,0 2.45301,-0.70907 0.7474,-0.72824 0.86239,-2.52967 0.15331,-2.93211 0.53659,-4.12029 0.40245,-1.18818 1.60979,-2.35719 2.10806,-2.05057 5.84507,-2.05057 l 2.16555,0 z"
               style=""
               id="path8130" />
            <path
               d="m 366.71804,215.58558 -10.86608,0 q -0.24913,-0.82406 -0.24913,-1.51397 0,-0.95821 0.34496,-1.87809 l 3.64118,0 q -0.38328,-2.12722 -2.39551,-2.12722 -1.3415,0 -2.18472,1.14985 -0.84322,1.13069 -0.84322,2.91295 0,1.85892 0.80489,3.00877 0.82406,1.14985 2.14639,1.14985 1.07319,0 2.06973,-1.07319 l 4.08196,4.90602 q -2.85546,2.24221 -6.34333,2.24221 -4.25444,0 -7.14823,-2.85546 -2.89379,-2.85546 -2.89379,-7.07157 0,-4.19695 2.91295,-7.09074 2.93212,-2.89379 7.18656,-2.89379 4.15862,0 6.97575,2.8363 2.8363,2.81713 2.8363,6.95659 0,0.42161 -0.0767,1.34149 z"
               style=""
               id="path8132" />
            <path
               d="m 386.74458,223.97948 -7.16739,0 0,-10.78942 q 0,-1.64812 -1.36066,-1.64812 -1.34149,0 -1.34149,1.64812 l 0,10.78942 -7.16739,0 0,-10.65527 q 0,-3.73701 2.47217,-6.28585 2.47218,-2.56799 6.05588,-2.56799 4.10113,0 6.5733,2.97044 1.93558,2.31886 1.93558,6.45832 l 0,10.08035 z"
               style=""
               id="path8134" />
            <path
               d="m 402.91913,205.14111 0,7.55068 q -1.51397,0 -2.0889,0.57492 -0.55576,0.55577 -0.70907,2.22305 -0.49827,5.53844 -4.29277,7.81897 -2.01224,1.18818 -5.71092,1.18818 l -0.99653,0 0,-7.58901 0.32579,0 q 1.72477,0 2.45301,-0.70907 0.7474,-0.72824 0.86239,-2.52967 0.15331,-2.93211 0.53659,-4.12029 0.40245,-1.18818 1.60979,-2.35719 2.10806,-2.05057 5.84507,-2.05057 l 2.16555,0 z"
               style=""
               id="path8136" />
            <path
               d="m 424.05719,215.58558 -10.86608,0 q -0.24913,-0.82406 -0.24913,-1.51397 0,-0.95821 0.34495,-1.87809 l 3.64119,0 q -0.38328,-2.12722 -2.39552,-2.12722 -1.34149,0 -2.18471,1.14985 -0.84322,1.13069 -0.84322,2.91295 0,1.85892 0.80489,3.00877 0.82406,1.14985 2.14639,1.14985 1.07319,0 2.06973,-1.07319 l 4.08196,4.90602 q -2.85546,2.24221 -6.34334,2.24221 -4.25444,0 -7.14822,-2.85546 -2.89379,-2.85546 -2.89379,-7.07157 0,-4.19695 2.91295,-7.09074 2.93212,-2.89379 7.18656,-2.89379 4.15862,0 6.97575,2.8363 2.83629,2.81713 2.83629,6.95659 0,0.42161 -0.0767,1.34149 z"
               style=""
               id="path8138" />
          </g>
          <g
             transform="scale(0.80721443,1.2388282)"
             style="font-style:normal;font-variant:normal;font-weight:normal;font-stretch:normal;font-size:39.24818802px;line-height:125%;font-family:'Bauhaus 93';-inkscape-font-specification:'Bauhaus 93, ';text-align:start;letter-spacing:0px;word-spacing:0px;writing-mode:lr-tb;text-anchor:start;opacity:0.98200001;fill:#eed7f4;fill-opacity:1;stroke:none;stroke-width:1px;stroke-linecap:butt;stroke-linejoin:miter;stroke-opacity:1"
             id="text8140">
            <path
               d="m 338.41704,205.14111 0,7.55068 q -1.51396,0 -2.08889,0.57492 -0.55576,0.55577 -0.70907,2.22305 -0.49827,5.53844 -4.29277,7.81897 -2.01224,1.18818 -5.71092,1.18818 l -0.99654,0 0,-7.58901 0.32579,0 q 1.72478,0 2.45302,-0.70907 0.7474,-0.72824 0.86238,-2.52967 0.15332,-2.93211 0.5366,-4.12029 0.40245,-1.18818 1.60979,-2.35719 2.10806,-2.05057 5.84507,-2.05057 l 2.16554,0 z"
               style=""
               id="path8141" />
            <path
               d="m 359.55511,215.58558 -10.86608,0 q -0.24913,-0.82406 -0.24913,-1.51397 0,-0.95821 0.34495,-1.87809 l 3.64119,0 q -0.38328,-2.12722 -2.39552,-2.12722 -1.34149,0 -2.18471,1.14985 -0.84322,1.13069 -0.84322,2.91295 0,1.85892 0.80489,3.00877 0.82406,1.14985 2.14639,1.14985 1.07319,0 2.06972,-1.07319 l 4.08197,4.90602 q -2.85546,2.24221 -6.34334,2.24221 -4.25444,0 -7.14823,-2.85546 -2.89378,-2.85546 -2.89378,-7.07157 0,-4.19695 2.91295,-7.09074 2.93211,-2.89379 7.18656,-2.89379 4.15862,0 6.97575,2.8363 2.83629,2.81713 2.83629,6.95659 0,0.42161 -0.0766,1.34149 z"
               style=""
               id="path8143" />
            <path
               d="m 379.58165,223.97948 -7.1674,0 0,-10.78942 q 0,-1.64812 -1.36065,-1.64812 -1.34149,0 -1.34149,1.64812 l 0,10.78942 -7.1674,0 0,-10.65527 q 0,-3.73701 2.47218,-6.28585 2.47218,-2.56799 6.05587,-2.56799 4.10113,0 6.57331,2.97044 1.93558,2.31886 1.93558,6.45832 l 0,10.08035 z"
               style=""
               id="path8145" />
            <path
               d="m 395.75619,205.14111 0,7.55068 q -1.51396,0 -2.08889,0.57492 -0.55576,0.55577 -0.70907,2.22305 -0.49827,5.53844 -4.29277,7.81897 -2.01224,1.18818 -5.71092,1.18818 l -0.99654,0 0,-7.58901 0.32579,0 q 1.72478,0 2.45302,-0.70907 0.7474,-0.72824 0.86238,-2.52967 0.15332,-2.93211 0.5366,-4.12029 0.40245,-1.18818 1.60979,-2.35719 2.10805,-2.05057 5.84506,-2.05057 l 2.16555,0 z"
               style=""
               id="path8147" />
            <path
               d="m 416.89425,215.58558 -10.86607,0 q -0.24914,-0.82406 -0.24914,-1.51397 0,-0.95821 0.34496,-1.87809 l 3.64119,0 q -0.38328,-2.12722 -2.39552,-2.12722 -1.34149,0 -2.18471,1.14985 -0.84323,1.13069 -0.84323,2.91295 0,1.85892 0.8049,3.00877 0.82406,1.14985 2.14638,1.14985 1.0732,0 2.06973,-1.07319 l 4.08197,4.90602 q -2.85546,2.24221 -6.34334,2.24221 -4.25444,0 -7.14823,-2.85546 -2.89379,-2.85546 -2.89379,-7.07157 0,-4.19695 2.91296,-7.09074 2.93211,-2.89379 7.18655,-2.89379 4.15863,0 6.97576,2.8363 2.83629,2.81713 2.83629,6.95659 0,0.42161 -0.0767,1.34149 z"
               style=""
               id="path8149" />
          </g>
          <g
             transform="matrix(1.1771971,0,0,1.8066389,-92.194181,-160.79541)"
             style="font-style:normal;font-variant:normal;font-weight:normal;font-stretch:normal;font-size:26.91282845px;line-height:125%;font-family:'Bauhaus 93';-inkscape-font-specification:'Bauhaus 93, ';text-align:start;letter-spacing:0px;word-spacing:0px;writing-mode:lr-tb;text-anchor:start;opacity:0.23600003;fill:#d257d3;fill-opacity:0.93241278;stroke:none;stroke-width:1px;stroke-linecap:butt;stroke-linejoin:miter;stroke-opacity:1;filter:url(#filter11174)"
             id="text8294">
            <path
               d="m 306.76783,229.6696 0,5.17757 q -1.03814,0 -1.43237,0.39423 -0.38109,0.38109 -0.48622,1.52436 -0.34167,3.79776 -2.94359,5.36154 -1.37981,0.81474 -3.91603,0.81474 l -0.68333,0 0,-5.20385 0.2234,0 q 1.18269,0 1.68205,-0.48621 0.5125,-0.49936 0.59134,-1.73462 0.10513,-2.01058 0.36795,-2.82532 0.27596,-0.81474 1.10385,-1.61635 1.44551,-1.40609 4.00801,-1.40609 l 1.48494,0 z"
               style=""
               id="path8152" />
            <path
               d="m 321.26239,236.83146 -7.45097,0 q -0.17083,-0.56506 -0.17083,-1.03814 0,-0.65705 0.23654,-1.28782 l 2.49679,0 q -0.26282,-1.45865 -1.64263,-1.45865 -0.91987,0 -1.49807,0.78846 -0.57821,0.77532 -0.57821,1.99744 0,1.27468 0.55192,2.06314 0.56507,0.78846 1.4718,0.78846 0.7359,0 1.41923,-0.7359 l 2.79904,3.3641 q -1.95801,1.53751 -4.34968,1.53751 -2.91731,0 -4.9016,-1.95802 -1.9843,-1.95801 -1.9843,-4.84904 0,-2.87788 1.99744,-4.86218 2.01057,-1.98429 4.92788,-1.98429 2.85161,0 4.78334,1.94487 1.94487,1.93173 1.94487,4.77019 0,0.2891 -0.0526,0.91987 z"
               style=""
               id="path8154" />
            <path
               d="m 334.99476,242.58723 -4.91475,0 0,-7.3984 q 0,-1.13012 -0.93301,-1.13012 -0.91987,0 -0.91987,1.13012 l 0,7.3984 -4.91475,0 0,-7.30641 q 0,-2.5625 1.6952,-4.31026 1.69519,-1.76089 4.15256,-1.76089 2.81218,0 4.50738,2.03686 1.32724,1.59006 1.32724,4.42852 l 0,6.91218 z"
               style=""
               id="path8156" />
            <path
               d="m 346.08579,229.6696 0,5.17757 q -1.03814,0 -1.43237,0.39423 -0.38109,0.38109 -0.48622,1.52436 -0.34167,3.79776 -2.94359,5.36154 -1.37981,0.81474 -3.91603,0.81474 l -0.68333,0 0,-5.20385 0.2234,0 q 1.18269,0 1.68205,-0.48621 0.5125,-0.49936 0.59134,-1.73462 0.10513,-2.01058 0.36795,-2.82532 0.27596,-0.81474 1.10385,-1.61635 1.44551,-1.40609 4.00801,-1.40609 l 1.48494,0 z"
               style=""
               id="path8158" />
            <path
               d="m 360.58035,236.83146 -7.45097,0 q -0.17083,-0.56506 -0.17083,-1.03814 0,-0.65705 0.23654,-1.28782 l 2.49679,0 q -0.26282,-1.45865 -1.64263,-1.45865 -0.91987,0 -1.49807,0.78846 -0.57821,0.77532 -0.57821,1.99744 0,1.27468 0.55192,2.06314 0.56507,0.78846 1.4718,0.78846 0.7359,0 1.41923,-0.7359 l 2.79904,3.3641 q -1.95801,1.53751 -4.34968,1.53751 -2.91731,0 -4.90161,-1.95802 -1.98429,-1.95801 -1.98429,-4.84904 0,-2.87788 1.99744,-4.86218 2.01057,-1.98429 4.92788,-1.98429 2.85161,0 4.78334,1.94487 1.94487,1.93173 1.94487,4.77019 0,0.2891 -0.0526,0.91987 z"
               style=""
               id="path8160" />
          </g>
          <g
             transform="matrix(1.1771971,0,0,1.8066389,-92.194181,-160.79541)"
             style="font-style:normal;font-variant:normal;font-weight:normal;font-stretch:normal;font-size:26.91282845px;line-height:125%;font-family:'Bauhaus 93';-inkscape-font-specification:'Bauhaus 93, ';text-align:start;letter-spacing:0px;word-spacing:0px;writing-mode:lr-tb;text-anchor:start;opacity:0.23600003;fill:#d257d3;fill-opacity:0.93241278;stroke:none;stroke-width:1px;stroke-linecap:butt;stroke-linejoin:miter;stroke-opacity:1;filter:url(#filter11178)"
             id="text8298">
            <path
               d="m 310.37226,229.6696 0,5.17757 q -1.03814,0 -1.43237,0.39423 -0.38109,0.38109 -0.48622,1.52436 -0.34167,3.79776 -2.94359,5.36154 -1.37981,0.81474 -3.91603,0.81474 l -0.68333,0 0,-5.20385 0.2234,0 q 1.18269,0 1.68205,-0.48621 0.5125,-0.49936 0.59135,-1.73462 0.10512,-2.01058 0.36794,-2.82532 0.27597,-0.81474 1.10385,-1.61635 1.44551,-1.40609 4.00801,-1.40609 l 1.48494,0 z"
               style=""
               id="path8163" />
            <path
               d="m 324.86682,236.83146 -7.45097,0 q -0.17083,-0.56506 -0.17083,-1.03814 0,-0.65705 0.23654,-1.28782 l 2.49679,0 q -0.26282,-1.45865 -1.64263,-1.45865 -0.91987,0 -1.49807,0.78846 -0.57821,0.77532 -0.57821,1.99744 0,1.27468 0.55193,2.06314 0.56506,0.78846 1.47179,0.78846 0.7359,0 1.41923,-0.7359 l 2.79904,3.3641 q -1.95801,1.53751 -4.34968,1.53751 -2.91731,0 -4.9016,-1.95802 -1.9843,-1.95801 -1.9843,-4.84904 0,-2.87788 1.99744,-4.86218 2.01057,-1.98429 4.92788,-1.98429 2.85161,0 4.78334,1.94487 1.94487,1.93173 1.94487,4.77019 0,0.2891 -0.0526,0.91987 z"
               style=""
               id="path8165" />
            <path
               d="m 338.59919,242.58723 -4.91474,0 0,-7.3984 q 0,-1.13012 -0.93302,-1.13012 -0.91987,0 -0.91987,1.13012 l 0,7.3984 -4.91474,0 0,-7.30641 q 0,-2.5625 1.69519,-4.31026 1.69519,-1.76089 4.15256,-1.76089 2.81218,0 4.50738,2.03686 1.32724,1.59006 1.32724,4.42852 l 0,6.91218 z"
               style=""
               id="path8167" />
            <path
               d="m 349.69022,229.6696 0,5.17757 q -1.03814,0 -1.43237,0.39423 -0.38109,0.38109 -0.48622,1.52436 -0.34167,3.79776 -2.94359,5.36154 -1.37981,0.81474 -3.91603,0.81474 l -0.68333,0 0,-5.20385 0.2234,0 q 1.18269,0 1.68205,-0.48621 0.5125,-0.49936 0.59134,-1.73462 0.10513,-2.01058 0.36795,-2.82532 0.27596,-0.81474 1.10385,-1.61635 1.44551,-1.40609 4.00801,-1.40609 l 1.48494,0 z"
               style=""
               id="path8169" />
            <path
               d="m 364.18478,236.83146 -7.45097,0 q -0.17083,-0.56506 -0.17083,-1.03814 0,-0.65705 0.23654,-1.28782 l 2.49679,0 q -0.26282,-1.45865 -1.64263,-1.45865 -0.91987,0 -1.49807,0.78846 -0.57821,0.77532 -0.57821,1.99744 0,1.27468 0.55193,2.06314 0.56506,0.78846 1.47179,0.78846 0.7359,0 1.41923,-0.7359 l 2.79904,3.3641 q -1.95801,1.53751 -4.34968,1.53751 -2.91731,0 -4.9016,-1.95802 -1.9843,-1.95801 -1.9843,-4.84904 0,-2.87788 1.99744,-4.86218 2.01057,-1.98429 4.92788,-1.98429 2.85161,0 4.78334,1.94487 1.94487,1.93173 1.94487,4.77019 0,0.2891 -0.0526,0.91987 z"
               style=""
               id="path8171" />
          </g>
          <g
             transform="matrix(1.177197,0,0,1.8066389,-92.194181,-160.79541)"
             style="font-style:normal;font-variant:normal;font-weight:normal;font-stretch:normal;font-size:26.91282845px;line-height:125%;font-family:'Bauhaus 93';-inkscape-font-specification:'Bauhaus 93, ';text-align:start;letter-spacing:0px;word-spacing:0px;writing-mode:lr-tb;text-anchor:start;opacity:0.23600003;fill:#d257d3;fill-opacity:0.93241278;stroke:none;stroke-width:1px;stroke-linecap:butt;stroke-linejoin:miter;stroke-opacity:1;filter:url(#filter11182)"
             id="text8302">
            <path
               d="m 315.28394,229.6696 0,5.17757 q -1.03814,0 -1.43237,0.39423 -0.38109,0.38109 -0.48622,1.52436 -0.34166,3.79776 -2.94359,5.36154 -1.37981,0.81474 -3.91602,0.81474 l -0.68334,0 0,-5.20385 0.2234,0 q 1.18269,0 1.68205,-0.48621 0.5125,-0.49936 0.59135,-1.73462 0.10513,-2.01058 0.36795,-2.82532 0.27596,-0.81474 1.10384,-1.61635 1.44552,-1.40609 4.00802,-1.40609 l 1.48493,0 z"
               style=""
               id="path8174" />
            <path
               d="m 329.7785,236.83146 -7.45097,0 q -0.17083,-0.56506 -0.17083,-1.03814 0,-0.65705 0.23654,-1.28782 l 2.4968,0 q -0.26282,-1.45865 -1.64263,-1.45865 -0.91988,0 -1.49808,0.78846 -0.57821,0.77532 -0.57821,1.99744 0,1.27468 0.55193,2.06314 0.56506,0.78846 1.47179,0.78846 0.7359,0 1.41923,-0.7359 l 2.79904,3.3641 q -1.95801,1.53751 -4.34968,1.53751 -2.91731,0 -4.9016,-1.95802 -1.9843,-1.95801 -1.9843,-4.84904 0,-2.87788 1.99744,-4.86218 2.01058,-1.98429 4.92789,-1.98429 2.8516,0 4.78333,1.94487 1.94487,1.93173 1.94487,4.77019 0,0.2891 -0.0526,0.91987 z"
               style=""
               id="path8176" />
            <path
               d="m 343.51087,242.58723 -4.91474,0 0,-7.3984 q 0,-1.13012 -0.93301,-1.13012 -0.91988,0 -0.91988,1.13012 l 0,7.3984 -4.91474,0 0,-7.30641 q 0,-2.5625 1.69519,-4.31026 1.69519,-1.76089 4.15257,-1.76089 2.81218,0 4.50737,2.03686 1.32724,1.59006 1.32724,4.42852 l 0,6.91218 z"
               style=""
               id="path8178" />
            <path
               d="m 354.6019,229.6696 0,5.17757 q -1.03814,0 -1.43237,0.39423 -0.38109,0.38109 -0.48622,1.52436 -0.34166,3.79776 -2.94359,5.36154 -1.37981,0.81474 -3.91603,0.81474 l -0.68333,0 0,-5.20385 0.2234,0 q 1.18269,0 1.68205,-0.48621 0.5125,-0.49936 0.59135,-1.73462 0.10512,-2.01058 0.36795,-2.82532 0.27596,-0.81474 1.10384,-1.61635 1.44552,-1.40609 4.00802,-1.40609 l 1.48493,0 z"
               style=""
               id="path8180" />
            <path
               d="m 369.09646,236.83146 -7.45097,0 q -0.17083,-0.56506 -0.17083,-1.03814 0,-0.65705 0.23654,-1.28782 l 2.4968,0 q -0.26283,-1.45865 -1.64263,-1.45865 -0.91988,0 -1.49808,0.78846 -0.57821,0.77532 -0.57821,1.99744 0,1.27468 0.55193,2.06314 0.56506,0.78846 1.47179,0.78846 0.7359,0 1.41923,-0.7359 l 2.79904,3.3641 q -1.95801,1.53751 -4.34968,1.53751 -2.91731,0 -4.9016,-1.95802 -1.9843,-1.95801 -1.9843,-4.84904 0,-2.87788 1.99744,-4.86218 2.01058,-1.98429 4.92789,-1.98429 2.8516,0 4.78333,1.94487 1.94487,1.93173 1.94487,4.77019 0,0.2891 -0.0526,0.91987 z"
               style=""
               id="path8182" />
          </g>
          <g
             transform="matrix(1.177197,0,0,1.8066389,-92.194181,-160.79541)"
             style="font-style:normal;font-variant:normal;font-weight:normal;font-stretch:normal;font-size:26.91282845px;line-height:125%;font-family:'Bauhaus 93';-inkscape-font-specification:'Bauhaus 93, ';text-align:start;letter-spacing:0px;word-spacing:0px;writing-mode:lr-tb;text-anchor:start;opacity:0.23600003;fill:#d257d3;fill-opacity:0.93241278;stroke:none;stroke-width:1px;stroke-linecap:butt;stroke-linejoin:miter;stroke-opacity:1;filter:url(#filter11186)"
             id="text8306">
            <path
               d="m 310.37226,229.6696 0,5.17757 q -1.03814,0 -1.43237,0.39423 -0.38109,0.38109 -0.48622,1.52436 -0.34167,3.79776 -2.94359,5.36154 -1.37981,0.81474 -3.91603,0.81474 l -0.68333,0 0,-5.20385 0.2234,0 q 1.18269,0 1.68205,-0.48621 0.5125,-0.49936 0.59135,-1.73462 0.10512,-2.01058 0.36794,-2.82532 0.27597,-0.81474 1.10385,-1.61635 1.44551,-1.40609 4.00801,-1.40609 l 1.48494,0 z"
               style=""
               id="path8185" />
            <path
               d="m 324.86682,236.83146 -7.45097,0 q -0.17083,-0.56506 -0.17083,-1.03814 0,-0.65705 0.23654,-1.28782 l 2.49679,0 q -0.26282,-1.45865 -1.64263,-1.45865 -0.91987,0 -1.49807,0.78846 -0.57821,0.77532 -0.57821,1.99744 0,1.27468 0.55193,2.06314 0.56506,0.78846 1.47179,0.78846 0.7359,0 1.41923,-0.7359 l 2.79904,3.3641 q -1.95801,1.53751 -4.34968,1.53751 -2.91731,0 -4.9016,-1.95802 -1.9843,-1.95801 -1.9843,-4.84904 0,-2.87788 1.99744,-4.86218 2.01057,-1.98429 4.92788,-1.98429 2.85161,0 4.78334,1.94487 1.94487,1.93173 1.94487,4.77019 0,0.2891 -0.0526,0.91987 z"
               style=""
               id="path8187" />
            <path
               d="m 338.59919,242.58723 -4.91474,0 0,-7.3984 q 0,-1.13012 -0.93302,-1.13012 -0.91987,0 -0.91987,1.13012 l 0,7.3984 -4.91474,0 0,-7.30641 q 0,-2.5625 1.69519,-4.31026 1.69519,-1.76089 4.15256,-1.76089 2.81218,0 4.50738,2.03686 1.32724,1.59006 1.32724,4.42852 l 0,6.91218 z"
               style=""
               id="path8189" />
            <path
               d="m 349.69022,229.6696 0,5.17757 q -1.03814,0 -1.43237,0.39423 -0.38109,0.38109 -0.48622,1.52436 -0.34167,3.79776 -2.94359,5.36154 -1.37981,0.81474 -3.91603,0.81474 l -0.68333,0 0,-5.20385 0.2234,0 q 1.18269,0 1.68205,-0.48621 0.5125,-0.49936 0.59134,-1.73462 0.10513,-2.01058 0.36795,-2.82532 0.27596,-0.81474 1.10385,-1.61635 1.44551,-1.40609 4.00801,-1.40609 l 1.48494,0 z"
               style=""
               id="path8191" />
            <path
               d="m 364.18478,236.83146 -7.45097,0 q -0.17083,-0.56506 -0.17083,-1.03814 0,-0.65705 0.23654,-1.28782 l 2.49679,0 q -0.26282,-1.45865 -1.64263,-1.45865 -0.91987,0 -1.49807,0.78846 -0.57821,0.77532 -0.57821,1.99744 0,1.27468 0.55193,2.06314 0.56506,0.78846 1.47179,0.78846 0.7359,0 1.41923,-0.7359 l 2.79904,3.3641 q -1.95801,1.53751 -4.34968,1.53751 -2.91731,0 -4.9016,-1.95802 -1.9843,-1.95801 -1.9843,-4.84904 0,-2.87788 1.99744,-4.86218 2.01057,-1.98429 4.92788,-1.98429 2.85161,0 4.78334,1.94487 1.94487,1.93173 1.94487,4.77019 0,0.2891 -0.0526,0.91987 z"
               style=""
               id="path8193" />
          </g>
        </g>
      </g>
    </g>
  </g>
</svg>
