<?xml version="1.0" encoding="UTF-8" standalone="no"?>
<!-- Created with Inkscape (http://www.inkscape.org/) -->

<svg
   xmlns:dc="http://purl.org/dc/elements/1.1/"
   xmlns:cc="http://creativecommons.org/ns#"
   xmlns:rdf="http://www.w3.org/1999/02/22-rdf-syntax-ns#"
   xmlns:svg="http://www.w3.org/2000/svg"
   xmlns="http://www.w3.org/2000/svg"
   xmlns:sodipodi="http://sodipodi.sourceforge.net/DTD/sodipodi-0.dtd"
   xmlns:inkscape="http://www.inkscape.org/namespaces/inkscape"
   width="100mm"
   height="100mm"
   viewBox="0 0 354.33071 354.33071"
   id="svg2"
   version="1.1"
   inkscape:version="0.91 r13725"
   sodipodi:docname="logo.svg">
  <defs
     id="defs4">
    <filter
       inkscape:collect="always"
       style="color-interpolation-filters:sRGB"
       id="filter4383"
       x="-0.16723616"
       width="1.3344723"
       y="-0.11979395"
       height="1.2395879">
      <feGaussianBlur
         inkscape:collect="always"
         stdDeviation="4.4095475"
         id="feGaussianBlur4385" />
    </filter>
  </defs>
  <sodipodi:namedview
     id="base"
     pagecolor="#ffffff"
     bordercolor="#666666"
     borderopacity="1.0"
     inkscape:pageopacity="0.0"
     inkscape:pageshadow="2"
     inkscape:zoom="0.24748737"
     inkscape:cx="577.94223"
     inkscape:cy="-275.22797"
     inkscape:document-units="px"
     inkscape:current-layer="g4391"
     showgrid="false"
     inkscape:window-width="2560"
     inkscape:window-height="1377"
     inkscape:window-x="-8"
     inkscape:window-y="-8"
     inkscape:window-maximized="1" />
  <metadata
     id="metadata7">
    <rdf:RDF>
      <cc:Work
         rdf:about="">
        <dc:format>image/svg+xml</dc:format>
        <dc:type
           rdf:resource="http://purl.org/dc/dcmitype/StillImage" />
        <dc:title></dc:title>
      </cc:Work>
    </rdf:RDF>
  </metadata>
  <g
     inkscape:label="Calque 1"
     inkscape:groupmode="layer"
     id="layer1"
     transform="translate(0,-698.0315)">
    <g
       style="font-style:normal;font-variant:normal;font-weight:normal;font-stretch:normal;font-size:80px;line-height:125%;font-family:'OCR A Extended';-inkscape-font-specification:'OCR A Extended, Normal';text-align:start;letter-spacing:0px;word-spacing:0px;writing-mode:lr-tb;text-anchor:start;fill:#000000;fill-opacity:1;stroke:none;stroke-width:1px;stroke-linecap:butt;stroke-linejoin:miter;stroke-opacity:1"
       id="text4136">
      <g
         id="g4391"
         transform="matrix(3.2678924,0,0,3.1081781,-805.60543,50.726503)"
         style="image-rendering:optimizeSpeed">
        <g
           id="g8329"
           transform="translate(-4.9458301,1.2999931)">
          <path
             d="m 290.57387,222.37673 32.45765,0 c 3.96127,0 7.69972,1.50673 11.21533,4.52016 3.56514,2.96913 5.34771,6.58084 5.34771,10.83511 0,1.59535 -0.6437,2.94697 -1.93111,4.05485 -1.23789,1.1079 -2.62434,1.66184 -4.15933,1.66184 -2.12918,0 -3.5899,-0.42101 -4.38216,-1.26299 -0.79226,-0.88631 -1.55974,-2.50381 -2.30249,-4.85253 -0.69321,-2.34872 -2.27771,-3.52308 -4.75352,-3.52308 l -30.8236,0 c -1.48547,0 -2.22822,0.421 -2.22822,1.26299 0,0.53178 0.32185,1.15219 0.96555,1.86124 l 46.27257,52.97899 c 2.2282,2.57029 3.34231,5.31784 3.34231,8.24265 0,3.32366 -1.36167,6.24847 -4.08504,8.77444 -2.67386,2.52598 -5.66958,3.78897 -8.98714,3.78897 l -33.64602,0 c -4.45642,0 -8.34341,-1.50673 -11.66097,-4.52016 -3.26805,-3.05777 -4.90208,-6.40359 -4.90208,-10.03743 0,-4.16565 2.17869,-6.24847 6.53609,-6.24847 1.68355,0 3.11951,0.55394 4.30789,1.66183 1.18838,1.06357 1.78257,2.32656 1.78257,3.78896 0,1.19652 0.44563,2.19361 1.33692,2.99128 0.9408,0.79768 2.10442,1.19653 3.49087,1.19653 l 31.04644,0 c 1.33692,0 2.00538,-0.46532 2.00538,-1.39595 0,-0.44314 -0.32185,-1.01924 -0.96555,-1.72829 l -46.19828,-52.97898 c -2.17869,-2.52599 -3.26804,-5.27353 -3.26804,-8.24266 0,-3.45659 1.38645,-6.44789 4.15933,-8.97386 2.77288,-2.57029 6.11519,-3.85544 10.02694,-3.85544 z"
             id="path4141"
             inkscape:connector-curvature="0"
             sodipodi:nodetypes="sscscsccsssccscsscsscscsssccscs"
             style="fill:#55d400" />
          <path
             style="opacity:0.80699978;fill:#99ff55;filter:url(#filter4383)"
             sodipodi:nodetypes="sscscsccsssccscsscsscscsssccscs"
             inkscape:connector-curvature="0"
             id="path4211"
             d="m 290.57387,222.37673 32.45765,0 c 3.96127,0 7.69972,1.50673 11.21533,4.52016 3.56514,2.96913 5.34771,6.58084 5.34771,10.83511 0,1.59535 -0.6437,2.94697 -1.93111,4.05485 -1.23789,1.1079 -2.62434,1.66184 -4.15933,1.66184 -2.12918,0 -3.5899,-0.42101 -4.38216,-1.26299 -0.79226,-0.88631 -1.55974,-2.50381 -2.30249,-4.85253 -0.69321,-2.34872 -2.27771,-3.52308 -4.75352,-3.52308 l -30.8236,0 c -1.48547,0 -2.22822,0.421 -2.22822,1.26299 0,0.53178 0.32185,1.15219 0.96555,1.86124 l 46.27257,52.97899 c 2.2282,2.57029 3.34231,5.31784 3.34231,8.24265 0,3.32366 -1.36167,6.24847 -4.08504,8.77444 -2.67386,2.52598 -5.66958,3.78897 -8.98714,3.78897 l -33.64602,0 c -4.45642,0 -8.34341,-1.50673 -11.66097,-4.52016 -3.26805,-3.05777 -4.90208,-6.40359 -4.90208,-10.03743 0,-4.16565 2.17869,-6.24847 6.53609,-6.24847 1.68355,0 3.11951,0.55394 4.30789,1.66183 1.18838,1.06357 1.78257,2.32656 1.78257,3.78896 0,1.19652 0.44563,2.19361 1.33692,2.99128 0.9408,0.79768 2.10442,1.19653 3.49087,1.19653 l 31.04644,0 c 1.33692,0 2.00538,-0.46532 2.00538,-1.39595 0,-0.44314 -0.32185,-1.01924 -0.96555,-1.72829 l -46.19828,-52.97898 c -2.17869,-2.52599 -3.26804,-5.27353 -3.26804,-8.24266 0,-3.45659 1.38645,-6.44789 4.15933,-8.97386 2.77288,-2.57029 6.11519,-3.85544 10.02694,-3.85544 z" />
        </g>
      </g>
    </g>
  </g>
</svg>
